<?xml version="1.0" standalone="no"?>
<!DOCTYPE svg PUBLIC "-//W3C//DTD SVG 20010904//EN"
 "http://www.w3.org/TR/2001/REC-SVG-20010904/DTD/svg10.dtd">
<svg version="1.0" xmlns="http://www.w3.org/2000/svg"
 width="1324.000000pt" height="1324.000000pt" viewBox="0 0 1324.000000 1324.000000"
 preserveAspectRatio="xMidYMid meet">
<metadata>
Created by potrace 1.11, written by Peter Selinger 2001-2013
</metadata>
<g transform="translate(0.000000,1324.000000) scale(0.100000,-0.100000)"
fill="#000000" stroke="none">
<path d="M6597 9873 c-3 -15 -11 -41 -18 -58 -7 -16 -13 -37 -15 -45 -2 -8 -7
-23 -13 -35 -13 -25 -40 -94 -40 -100 -1 -11 -136 -270 -144 -276 -5 -3 -9
-12 -11 -20 -7 -40 -320 -505 -348 -517 -5 -2 -8 -8 -8 -13 0 -5 -8 -17 -17
-27 -10 -11 -47 -54 -83 -98 -36 -43 -82 -97 -102 -119 -20 -22 -51 -56 -68
-75 -125 -138 -413 -412 -515 -492 -16 -12 -40 -32 -52 -43 -24 -22 -29 -26
-93 -75 -25 -19 -47 -37 -50 -41 -3 -3 -23 -18 -45 -35 -22 -16 -45 -33 -51
-39 -6 -5 -27 -21 -47 -35 -20 -14 -37 -28 -37 -32 0 -5 -5 -8 -11 -8 -6 0
-28 -13 -48 -29 -20 -15 -88 -63 -151 -105 -63 -42 -119 -80 -125 -84 -5 -4
-28 -19 -50 -32 -22 -13 -42 -27 -45 -30 -5 -5 -39 -26 -115 -70 -16 -9 -65
-38 -108 -64 -43 -25 -82 -46 -87 -46 -5 0 -10 -4 -12 -8 -1 -5 -37 -26 -78
-47 -41 -21 -87 -47 -102 -58 -16 -10 -28 -15 -28 -11 0 4 -8 0 -17 -8 -22
-19 -344 -178 -361 -178 -7 0 -12 -3 -12 -8 0 -6 -102 -55 -120 -58 -3 0 -40
-17 -84 -37 -43 -20 -80 -37 -82 -37 -2 0 -27 -11 -56 -24 -29 -13 -100 -43
-158 -66 -58 -23 -116 -47 -130 -53 -14 -6 -38 -16 -55 -23 -35 -14 -286 -104
-300 -108 -5 -2 -23 -8 -40 -15 -34 -15 -382 -131 -405 -136 -8 -2 -27 -8 -42
-14 -16 -6 -28 -8 -28 -5 0 2 -14 -3 -31 -11 -16 -9 -42 -18 -57 -20 -15 -2
-40 -8 -57 -14 -16 -6 -64 -20 -105 -32 -41 -11 -97 -27 -125 -35 -27 -8 -59
-17 -70 -19 -11 -2 -20 -4 -20 -5 0 -1 -7 -3 -15 -5 -8 -1 -60 -15 -115 -29
-55 -15 -107 -28 -115 -30 -20 -6 -111 -27 -130 -31 -8 -1 -33 -8 -55 -13 -22
-6 -51 -13 -65 -16 -14 -3 -43 -10 -65 -15 -22 -5 -51 -12 -65 -15 -14 -2 -45
-9 -70 -15 -51 -11 -70 -15 -157 -33 -35 -7 -63 -15 -63 -19 0 -16 51 -103 85
-143 170 -203 463 -249 684 -106 67 43 141 124 179 195 l27 50 70 3 70 2 23
-48 c12 -27 32 -59 43 -70 11 -12 18 -22 15 -22 -10 0 70 -73 109 -100 179
-123 410 -126 585 -7 46 31 140 124 140 138 0 4 6 14 13 21 6 7 20 30 29 51
18 37 18 37 78 37 l60 0 29 -57 c29 -58 129 -173 150 -173 6 0 11 -4 11 -9 0
-15 143 -75 208 -87 76 -14 156 -10 232 13 30 9 58 17 61 17 3 1 37 21 75 45
74 47 139 116 184 196 l28 50 68 3 69 3 30 -58 c42 -82 136 -174 221 -217 38
-19 80 -37 94 -38 14 -2 27 -6 31 -10 16 -23 218 -11 281 16 9 4 22 8 30 10 7
1 40 18 73 38 83 51 159 135 200 221 25 53 48 49 80 -17 55 -112 189 -224 306
-256 175 -48 339 -24 474 71 74 52 146 136 174 206 12 30 14 31 75 31 60 -1
63 -2 76 -32 54 -126 189 -240 333 -281 67 -19 181 -26 240 -13 81 16 92 19
127 35 85 40 211 148 226 195 3 10 9 18 14 18 4 0 10 8 12 18 14 51 24 58 81
59 43 1 50 -2 60 -26 44 -102 139 -197 250 -250 45 -22 102 -43 127 -47 98
-16 237 -2 320 32 3 1 15 5 28 9 12 4 22 10 22 14 0 3 13 12 29 19 54 24 159
144 191 218 13 31 16 32 74 33 l61 1 30 -58 c41 -80 146 -182 229 -221 71 -34
83 -38 162 -50 216 -32 457 98 537 292 l15 35 82 -1 81 -2 27 -50 c15 -27 33
-54 40 -58 6 -4 12 -12 12 -17 0 -5 19 -28 41 -50 120 -118 292 -174 459 -148
77 12 205 77 265 135 50 48 105 123 105 143 0 5 5 10 10 10 6 0 10 7 10 15 0
17 39 36 55 27 5 -3 28 -5 51 -3 41 2 42 2 67 -51 28 -57 98 -138 162 -185
195 -144 476 -125 657 45 45 42 128 160 128 182 0 6 27 10 64 10 l64 0 15 -38
c15 -37 85 -134 116 -160 54 -45 145 -96 204 -113 82 -25 259 -30 273 -7 3 4
9 6 14 3 5 -3 17 -2 27 4 10 5 45 22 78 37 76 37 180 139 222 219 l32 61 -62
12 c-90 18 -103 21 -202 43 -49 12 -101 23 -115 25 -14 3 -34 8 -45 11 -11 3
-30 7 -42 9 -12 1 -37 7 -55 13 -18 6 -44 12 -58 15 -20 4 -120 29 -210 52
-37 9 -136 35 -145 38 -5 1 -30 8 -55 15 -25 8 -49 14 -55 15 -5 2 -30 9 -55
16 -25 7 -50 14 -56 16 -7 1 -45 12 -85 24 -41 13 -103 32 -139 42 -160 49
-610 201 -685 233 -16 7 -49 18 -72 25 -24 7 -43 16 -43 20 0 4 -6 7 -12 7
-14 0 -288 109 -378 150 -52 24 -89 40 -185 81 -22 9 -109 51 -195 93 -85 42
-173 84 -195 94 -22 11 -42 21 -45 24 -3 4 -30 18 -60 33 -102 52 -224 120
-378 212 -84 50 -161 96 -172 102 -11 6 -28 18 -38 27 -10 10 -22 17 -26 17
-6 0 -203 129 -231 152 -5 4 -64 47 -130 94 -102 73 -283 214 -321 249 -7 5
-29 24 -50 42 -43 34 -53 43 -156 134 -74 66 -375 365 -417 416 -13 15 -37 44
-55 63 -17 19 -51 60 -76 90 -25 30 -47 57 -50 60 -3 3 -35 43 -70 90 -36 47
-67 87 -70 90 -17 15 -177 262 -237 365 -58 98 -175 325 -178 345 -1 3 -9 23
-19 45 -9 22 -31 78 -47 125 -16 46 -31 86 -33 87 -2 2 -6 -9 -9 -24z"/>
<path d="M765 4373 l0 -1007 25 -6 c14 -4 34 -4 45 0 11 4 30 4 41 -1 12 -4
24 -5 27 -2 3 3 32 4 64 3 32 -1 64 -1 71 -1 26 2 39 2 105 0 37 -1 70 1 73 4
4 3 17 2 30 -3 13 -5 25 -6 28 -1 3 4 27 5 54 1 27 -3 58 -3 68 0 10 4 33 4
51 -1 19 -4 36 -3 39 3 3 5 11 4 20 -3 10 -8 14 -8 14 0 0 7 8 8 23 2 12 -5
30 -5 41 -2 10 4 40 4 66 1 26 -3 56 -3 65 0 10 4 38 3 62 0 24 -4 46 -4 48 0
2 4 18 5 35 2 33 -5 32 -10 32 118 0 22 -1 51 -1 64 l-1 24 -412 1 c-227 0
-428 0 -445 1 l-33 0 0 370 0 370 48 1 c26 0 212 0 413 -1 291 -1 367 2 371
12 7 19 3 187 -4 194 -8 7 -108 11 -108 4 0 -3 -21 -4 -47 -2 -27 1 -54 3 -60
2 -30 0 -40 0 -73 2 -20 1 -43 -1 -52 -5 -10 -3 -20 -2 -24 4 -4 7 -10 7 -18
0 -6 -6 -18 -6 -25 -2 -8 5 -26 5 -42 1 -15 -5 -30 -6 -32 -3 -7 6 -107 9
-107 3 0 -5 -51 -4 -117 3 -18 2 -33 0 -33 -5 0 -4 -11 -3 -24 2 -13 5 -33 6
-45 3 l-21 -5 0 326 1 326 37 1 c20 0 220 0 445 0 l407 1 1 49 c0 27 1 63 1
79 0 17 -1 41 -1 55 l-1 25 -563 0 -562 0 0 -1007z"/>
<path d="M6832 5276 l0 -104 315 0 c173 0 317 -2 319 -5 3 -2 5 -409 5 -904
l0 -899 36 -2 c20 -2 40 -5 44 -8 4 -2 11 0 14 6 5 8 11 7 21 -1 8 -6 14 -8
14 -3 0 5 24 7 54 6 l54 -4 0 902 c0 495 2 903 5 906 3 3 147 6 319 6 l314 0
1 104 1 104 -758 0 -758 0 0 -104z"/>
<path d="M12073 5232 c-17 -3 -26 -17 -43 -75 -12 -40 -23 -76 -24 -82 -1 -5
-13 -45 -26 -89 -22 -72 -27 -80 -59 -93 -20 -9 -69 -30 -109 -49 l-73 -34 3
-56 3 -57 105 2 105 2 1 -483 c1 -564 2 -575 57 -687 39 -78 145 -163 221
-177 139 -24 209 -24 326 2 l76 16 -1 89 0 90 -25 -7 c-53 -13 -77 -16 -150
-17 -41 0 -94 5 -116 11 -55 16 -107 65 -135 127 -22 49 -22 56 -23 540 l-2
490 221 5 220 5 0 83 c0 46 -3 86 -6 88 -6 3 -61 5 -109 3 -24 0 -231 0 -274
1 -22 1 -42 3 -46 5 -3 2 -5 80 -5 174 0 110 -3 171 -10 172 -48 3 -83 4 -102
1z"/>
<path d="M4210 4898 c-79 -10 -174 -41 -238 -76 -53 -30 -181 -153 -205 -198
-113 -212 -145 -378 -124 -629 23 -262 156 -476 358 -577 41 -21 80 -38 86
-38 6 0 24 -5 40 -12 15 -7 33 -13 38 -13 6 -1 37 -5 70 -10 94 -13 304 -8
380 10 78 18 111 28 172 50 l69 26 0 94 c-1 51 -4 97 -9 101 -4 4 -17 3 -30
-3 -47 -23 -165 -58 -227 -69 -175 -29 -309 -26 -410 9 -49 17 -129 69 -166
109 -42 44 -92 135 -110 200 -13 47 -17 73 -27 178 l-2 25 520 0 520 0 -1 115
c-1 181 -20 281 -74 395 -30 63 -45 84 -108 149 -126 130 -315 189 -522 164z
m250 -215 c52 -23 130 -89 130 -109 0 -8 4 -14 8 -14 22 0 68 -162 71 -250 l2
-46 -390 1 c-214 0 -392 3 -396 6 -11 11 24 151 54 215 17 37 50 82 79 111 70
68 72 69 143 92 84 28 231 25 299 -6z"/>
<path d="M6027 4903 c-3 -3 -28 -6 -54 -8 -26 -1 -74 -7 -105 -14 -32 -7 -61
-12 -65 -13 -5 0 -14 -5 -22 -11 -7 -6 -19 -12 -25 -13 -29 -4 -105 -60 -157
-115 -54 -57 -75 -72 -66 -46 2 6 -2 34 -9 61 -7 27 -11 53 -8 57 2 4 0 10 -5
14 -6 3 -8 12 -4 20 11 31 -13 41 -96 39 -45 -1 -85 -2 -90 -3 -6 0 -9 -305
-9 -757 0 -734 0 -756 18 -751 11 3 21 0 24 -7 3 -8 5 -7 5 1 1 9 8 10 24 4
12 -5 31 -5 42 -1 11 4 31 4 45 1 38 -10 69 -2 69 17 -1 42 0 479 0 497 6 317
10 454 15 470 3 11 10 38 15 61 35 141 141 257 255 278 14 2 30 8 36 11 6 4
56 8 112 10 174 4 282 -45 332 -150 41 -88 44 -125 44 -668 l0 -522 46 -5 c25
-3 51 -1 56 4 7 7 10 5 10 -4 0 -10 3 -11 11 -3 6 6 24 8 42 4 18 -4 40 -5 50
-3 17 4 18 30 14 570 -2 312 -6 577 -10 590 -4 12 -9 30 -11 40 -35 150 -156
274 -306 313 -61 16 -67 17 -137 24 -37 4 -71 9 -74 11 -3 2 -9 1 -12 -3z"/>
<path d="M9053 4889 c-43 -8 -87 -20 -98 -26 -11 -6 -22 -10 -25 -10 -3 1 -31
-14 -63 -32 -89 -51 -167 -132 -240 -253 -24 -39 -65 -166 -81 -250 -20 -104
-16 -361 8 -453 31 -122 98 -247 174 -324 37 -37 86 -80 109 -95 114 -71 288
-113 450 -110 100 2 210 13 239 24 13 5 24 7 24 4 0 -4 6 -1 14 5 8 6 18 10
22 9 8 -2 52 12 124 39 8 4 18 5 23 5 8 -2 9 7 11 125 1 70 -2 83 -15 83 -9 0
-19 -3 -23 -7 -4 -5 -11 -8 -14 -8 -4 0 -20 -5 -37 -12 -49 -18 -137 -42 -175
-48 -19 -2 -51 -8 -70 -11 -43 -9 -245 -9 -283 0 -101 23 -208 92 -257 166 -8
12 -21 28 -27 36 -7 7 -13 19 -13 27 0 7 -3 17 -7 21 -8 8 -32 72 -38 101 -9
48 -20 132 -20 155 l0 25 510 1 c281 1 516 2 523 3 11 1 12 30 8 144 -3 78 -8
153 -11 167 -3 14 -9 39 -12 55 -23 132 -142 302 -261 372 -45 27 -135 64
-167 69 -11 1 -38 6 -61 9 -78 12 -163 10 -241 -6z m265 -193 c37 -8 104 -51
138 -88 56 -60 90 -147 100 -251 2 -29 7 -57 9 -64 2 -7 -1 -16 -8 -20 -14 -9
-763 -12 -777 -3 -22 13 40 220 82 275 97 124 188 167 343 161 50 -2 101 -6
113 -10z"/>
<path d="M10769 4884 c-97 -20 -198 -73 -263 -138 -31 -31 -56 -60 -56 -66 0
-5 -4 -10 -9 -10 -11 0 -21 27 -27 73 -4 35 -12 89 -16 109 -4 20 -27 25 -113
24 l-80 -1 0 -757 0 -756 38 -4 c20 -2 42 1 47 6 7 7 10 5 10 -4 0 -10 3 -11
11 -3 6 6 23 8 44 3 20 -5 42 -3 56 4 l21 11 3 470 c2 444 3 474 23 548 27
100 45 136 93 191 70 80 211 128 354 122 192 -9 270 -65 321 -235 10 -33 13
-164 13 -573 0 -292 2 -532 4 -535 3 -2 24 -4 48 -3 24 0 58 0 74 -1 17 0 37
0 45 0 8 1 25 1 38 1 14 0 22 6 23 18 3 115 -1 1041 -6 1082 -10 95 -50 209
-88 257 -67 83 -162 140 -277 165 -84 19 -246 20 -331 2z"/>
<path d="M2065 4872 c-2 -2 0 -14 5 -25 5 -12 21 -53 35 -92 15 -38 30 -79 35
-90 5 -11 27 -69 50 -130 22 -60 54 -144 70 -185 16 -41 54 -142 85 -225 31
-82 67 -177 80 -210 13 -33 37 -98 54 -145 18 -47 37 -96 43 -110 14 -32 23
-56 38 -100 7 -19 17 -46 22 -60 21 -51 27 -66 34 -90 5 -14 7 -28 6 -32 -2
-9 45 -18 93 -18 22 0 49 0 60 0 11 0 36 0 55 1 19 0 43 1 52 0 22 0 28 10 74
135 20 54 41 110 47 124 6 14 11 30 12 35 3 10 65 174 91 235 20 49 215 563
218 575 2 6 6 17 9 25 41 98 144 380 139 381 -25 5 -223 4 -231 -1 -9 -5 -37
-77 -106 -272 -13 -38 -27 -74 -32 -80 -4 -7 -8 -17 -8 -23 -1 -5 -4 -17 -8
-25 -6 -15 -62 -168 -138 -380 -21 -58 -68 -197 -105 -310 -37 -113 -69 -207
-71 -209 -8 -10 -20 25 -57 171 -3 9 -9 25 -14 35 -6 10 -10 23 -11 28 -2 23
-151 444 -177 502 -8 17 -14 37 -14 45 0 8 -3 18 -7 22 -5 4 -8 11 -9 14 -1 8
-7 25 -35 96 -10 27 -19 56 -19 65 0 10 -4 21 -9 27 -8 8 -43 102 -88 234 -9
25 -20 50 -25 55 -8 9 -234 16 -243 7z"/>
</g>
</svg>
