<?xml version="1.0" encoding="utf-8"?>
<!-- Generator: Adobe Illustrator 18.1.0, SVG Export Plug-In . SVG Version: 6.00 Build 0)  -->
<svg version="1.1" id="Layer_1" xmlns="http://www.w3.org/2000/svg" xmlns:xlink="http://www.w3.org/1999/xlink" x="0px" y="0px"
	 viewBox="0 0 331 187" enable-background="new 0 0 331 187" xml:space="preserve">
<g>
	<path fill="#DF1F26" d="M315.3,109.4c-132.7-26.9-150.1-98-150.1-98s-17.5,71.2-150.5,98.1h0.5c1.9,4.9,6.7,8.4,12.2,8.4
		c5.6,0,10.3-3.5,12.2-8.4h3.5c1.9,4.9,6.7,8.4,12.2,8.4c5.6,0,10.3-3.5,12.2-8.4h3c1.9,4.9,6.7,8.4,12.2,8.4
		c5.6,0,10.3-3.5,12.2-8.4h3.5c1.9,4.9,6.7,8.4,12.2,8.4c5.6,0,10.3-3.5,12.2-8.4h0.9c1.9,4.9,6.7,8.4,12.2,8.4
		c5.6,0,10.3-3.5,12.2-8.4h3.5c1.9,4.9,6.7,8.4,12.2,8.4s10.3-3.5,12.2-8.4h3c1.9,4.9,6.7,8.4,12.2,8.4c5.6,0,10.3-3.5,12.2-8.4h3.5
		c1.9,4.9,6.7,8.4,12.2,8.4c5.6,0,10.3-3.5,12.2-8.4h4c1.9,4.9,6.7,8.4,12.2,8.4s10.3-3.5,12.2-8.4h3.5c1.9,4.9,6.7,8.4,12.2,8.4
		c5.6,0,10.3-3.5,12.2-8.4h3c1.9,4.9,6.7,8.4,12.2,8.4c5.6,0,10.4-3.5,12.3-8.4H315.3z"/>
	<g>
		<path fill="#4A95D1" d="M47.3,175H19.1v-50.5h28.2v5.2H25v16.3h20.9v5.2H25v18.6h22.3V175z"/>
		<path fill="#4A95D1" d="M65.9,175l-14.4-37.9h6.2l8.2,22.5c1.8,5.3,2.9,8.7,3.2,10.2h0.3c0.3-1.2,1.1-3.8,2.4-7.6
			c1.3-3.8,4.4-12.2,9.1-25.1H87L72.6,175H65.9z"/>
		<path fill="#4A95D1" d="M109.1,175.6c-5.6,0-10-1.7-13.3-5.1c-3.2-3.4-4.9-8.1-4.9-14.2c0-6.1,1.5-11,4.5-14.5
			c3-3.6,7-5.4,12.1-5.4c4.7,0,8.5,1.6,11.3,4.7c2.8,3.1,4.1,7.2,4.1,12.4v3.6H96.9c0.1,4.4,1.2,7.8,3.4,10.1c2.1,2.3,5.1,3.5,9,3.5
			c4.1,0,8.1-0.9,12.1-2.6v5.1c-2,0.9-3.9,1.5-5.8,1.9C113.8,175.5,111.6,175.6,109.1,175.6z M107.5,141.2c-3,0-5.5,1-7.3,3
			c-1.8,2-2.9,4.7-3.2,8.2h19.8c0-3.6-0.8-6.4-2.4-8.3C112.8,142.1,110.5,141.2,107.5,141.2z"/>
		<path fill="#4A95D1" d="M158.7,175v-24.5c0-3.1-0.7-5.4-2.1-6.9c-1.4-1.5-3.6-2.3-6.6-2.3c-4,0-6.9,1.1-8.7,3.2s-2.8,5.7-2.8,10.6
			V175h-5.7v-37.9h4.7l0.9,5.2h0.3c1.2-1.9,2.8-3.3,4.9-4.3c2.1-1,4.5-1.5,7.1-1.5c4.6,0,8,1.1,10.3,3.3c2.3,2.2,3.5,5.7,3.5,10.6
			V175H158.7z"/>
		<path fill="#4A95D1" d="M192.7,175h-5.9v-45.3h-16v-5.2h37.9v5.2h-16V175z"/>
		<path fill="#4A95D1" d="M231.4,175.6c-5.6,0-10-1.7-13.3-5.1c-3.2-3.4-4.9-8.1-4.9-14.2c0-6.1,1.5-11,4.5-14.5
			c3-3.6,7-5.4,12.1-5.4c4.7,0,8.5,1.6,11.3,4.7s4.1,7.2,4.1,12.4v3.6h-26.1c0.1,4.4,1.2,7.8,3.4,10.1c2.1,2.3,5.1,3.5,9,3.5
			c4.1,0,8.1-0.9,12.1-2.6v5.1c-2,0.9-3.9,1.5-5.8,1.9C236.1,175.5,234,175.6,231.4,175.6z M229.8,141.2c-3,0-5.5,1-7.3,3
			c-1.8,2-2.9,4.7-3.2,8.2h19.8c0-3.6-0.8-6.4-2.4-8.3C235.1,142.1,232.8,141.2,229.8,141.2z"/>
		<path fill="#4A95D1" d="M281,175v-24.5c0-3.1-0.7-5.4-2.1-6.9c-1.4-1.5-3.6-2.3-6.6-2.3c-4,0-6.9,1.1-8.7,3.2
			c-1.8,2.1-2.8,5.7-2.8,10.6V175h-5.7v-37.9h4.7l0.9,5.2h0.3c1.2-1.9,2.8-3.3,4.9-4.3s4.5-1.5,7.1-1.5c4.6,0,8,1.1,10.3,3.3
			c2.3,2.2,3.5,5.7,3.5,10.6V175H281z"/>
		<path fill="#4A95D1" d="M310.8,170.9c1,0,2-0.1,2.9-0.2c0.9-0.1,1.7-0.3,2.2-0.5v4.4c-0.6,0.3-1.5,0.5-2.7,0.7
			c-1.2,0.2-2.3,0.3-3.3,0.3c-7.3,0-11-3.9-11-11.6v-22.5h-5.4v-2.8l5.4-2.4l2.4-8.1h3.3v8.8h11v4.5h-11v22.3c0,2.3,0.5,4,1.6,5.3
			C307.4,170.3,308.9,170.9,310.8,170.9z"/>
	</g>
	<g>
		<g>
			<path fill="#4A95D1" d="M165.2,11.4c0,0-6.9,49.9-41.2,98.1h0.2c1.9,4.9,6.7,8.4,12.2,8.4c5.6,0,10.3-3.5,12.2-8.4h3.5
				c1.9,4.9,6.7,8.4,12.2,8.4c5.6,0,10.3-3.5,12.2-8.4h3c1.9,4.9,6.7,8.4,12.2,8.4c5.6,0,10.3-3.5,12.2-8.4h1.2
				C171.1,61.3,165.2,11.4,165.2,11.4"/>
		</g>
	</g>
</g>
</svg>
